<?xml version="1.0" encoding="UTF-8" standalone="no"?>
<!DOCTYPE svg PUBLIC "-//W3C//DTD SVG 1.1//EN"
 "http://www.w3.org/Graphics/SVG/1.1/DTD/svg11.dtd">
<!-- Generated by graphviz version 2.40.1 (20161225.0304)
 -->
<!-- Title: dependencies Pages: 1 -->
<svg width="1055pt" height="284pt"
 viewBox="0.00 0.00 1055.00 284.00" xmlns="http://www.w3.org/2000/svg" xmlns:xlink="http://www.w3.org/1999/xlink">
<g id="graph0" class="graph" transform="scale(1 1) rotate(0) translate(4 280)">
<title>dependencies</title>
<polygon fill="#ffffff" stroke="transparent" points="-4,4 -4,-280 1051,-280 1051,4 -4,4"/>
<text text-anchor="start" x="502.5091" y="-42.4" font-family="sans-serif" font-weight="bold" font-size="14.00" fill="#000000">Legend</text>
<polygon fill="#ffffb3" stroke="transparent" points="289.5,-10 289.5,-30 309.5,-30 309.5,-10 289.5,-10"/>
<text text-anchor="start" x="313.129" y="-15.4" font-family="sans-serif" font-size="14.00" fill="#000000"> &#160;Declarations</text>
<polygon fill="#8dd3c7" stroke="transparent" points="402.5,-10 402.5,-30 422.5,-30 422.5,-10 402.5,-10"/>
<text text-anchor="start" x="426.2251" y="-15.4" font-family="sans-serif" font-size="14.00" fill="#000000"> &#160;Module</text>
<polygon fill="#80b1d3" stroke="transparent" points="488.5,-10 488.5,-30 508.5,-30 508.5,-10 488.5,-10"/>
<text text-anchor="start" x="512.2812" y="-15.4" font-family="sans-serif" font-size="14.00" fill="#000000"> &#160;Bootstrap</text>
<polygon fill="#fdb462" stroke="transparent" points="585.5,-10 585.5,-30 605.5,-30 605.5,-10 585.5,-10"/>
<text text-anchor="start" x="609.1732" y="-15.4" font-family="sans-serif" font-size="14.00" fill="#000000"> &#160;Providers</text>
<polygon fill="#fb8072" stroke="transparent" points="681.5,-10 681.5,-30 701.5,-30 701.5,-10 681.5,-10"/>
<text text-anchor="start" x="705.2258" y="-15.4" font-family="sans-serif" font-size="14.00" fill="#000000"> &#160;Exports</text>
<g id="clust1" class="cluster">
<title>cluster_AppModule</title>
<polygon fill="none" stroke="#000000" stroke-dasharray="1,5" points="8,-70 8,-268 1039,-268 1039,-70 8,-70"/>
</g>
<g id="clust2" class="cluster">
<title>cluster_AppModule_declarations</title>
<polygon fill="none" stroke="#000000" points="168,-78 168,-130 1031,-130 1031,-78 168,-78"/>
</g>
<g id="clust9" class="cluster">
<title>cluster_AppModule_imports</title>
<polygon fill="none" stroke="#000000" points="16,-78 16,-130 160,-130 160,-78 16,-78"/>
</g>
<g id="clust11" class="cluster">
<title>cluster_AppModule_bootstrap</title>
<polygon fill="none" stroke="#000000" points="491,-208 491,-260 615,-260 615,-208 491,-208"/>
</g>
<!-- AppComponent -->
<g id="node1" class="node">
<title>AppComponent</title>
<polygon fill="#ffffb3" stroke="#000000" points="1022.9399,-122 917.0601,-122 917.0601,-86 1022.9399,-86 1022.9399,-122"/>
<text text-anchor="middle" x="970" y="-99.8" font-family="Times,serif" font-size="14.00" fill="#000000">AppComponent</text>
</g>
<!-- AppModule -->
<g id="node7" class="node">
<title>AppModule</title>
<polygon fill="#8dd3c7" stroke="#000000" points="594.6571,-187 591.6571,-191 570.6571,-191 567.6571,-187 511.3429,-187 511.3429,-151 594.6571,-151 594.6571,-187"/>
<text text-anchor="middle" x="553" y="-164.8" font-family="Times,serif" font-size="14.00" fill="#000000">AppModule</text>
</g>
<!-- AppComponent&#45;&gt;AppModule -->
<g id="edge1" class="edge">
<title>AppComponent&#45;&gt;AppModule</title>
<path fill="none" stroke="#000000" d="M970,-122.2921C970,-144.2057 970,-178 970,-178 970,-178 604.8928,-178 604.8928,-178"/>
<polygon fill="#000000" stroke="#000000" points="604.8929,-174.5001 594.8928,-178 604.8928,-181.5001 604.8929,-174.5001"/>
</g>
<!-- HistoryComponent -->
<g id="node2" class="node">
<title>HistoryComponent</title>
<polygon fill="#ffffb3" stroke="#000000" points="899.8258,-122 776.1742,-122 776.1742,-86 899.8258,-86 899.8258,-122"/>
<text text-anchor="middle" x="838" y="-99.8" font-family="Times,serif" font-size="14.00" fill="#000000">HistoryComponent</text>
</g>
<!-- HistoryComponent&#45;&gt;AppModule -->
<g id="edge2" class="edge">
<title>HistoryComponent&#45;&gt;AppModule</title>
<path fill="none" stroke="#000000" d="M838,-122.1061C838,-141.3391 838,-169 838,-169 838,-169 604.7467,-169 604.7467,-169"/>
<polygon fill="#000000" stroke="#000000" points="604.7467,-165.5001 594.7467,-169 604.7466,-172.5001 604.7467,-165.5001"/>
</g>
<!-- HomeComponent -->
<g id="node3" class="node">
<title>HomeComponent</title>
<polygon fill="#ffffb3" stroke="#000000" points="758.5451,-122 643.4549,-122 643.4549,-86 758.5451,-86 758.5451,-122"/>
<text text-anchor="middle" x="701" y="-99.8" font-family="Times,serif" font-size="14.00" fill="#000000">HomeComponent</text>
</g>
<!-- HomeComponent&#45;&gt;AppModule -->
<g id="edge3" class="edge">
<title>HomeComponent&#45;&gt;AppModule</title>
<path fill="none" stroke="#000000" d="M701,-122.027C701,-138.3976 701,-160 701,-160 701,-160 605.015,-160 605.015,-160"/>
<polygon fill="#000000" stroke="#000000" points="605.015,-156.5001 595.015,-160 605.0149,-163.5001 605.015,-156.5001"/>
</g>
<!-- LoanDetailComponent -->
<g id="node4" class="node">
<title>LoanDetailComponent</title>
<polygon fill="#ffffb3" stroke="#000000" points="625.3075,-122 480.6925,-122 480.6925,-86 625.3075,-86 625.3075,-122"/>
<text text-anchor="middle" x="553" y="-99.8" font-family="Times,serif" font-size="14.00" fill="#000000">LoanDetailComponent</text>
</g>
<!-- LoanDetailComponent&#45;&gt;AppModule -->
<g id="edge4" class="edge">
<title>LoanDetailComponent&#45;&gt;AppModule</title>
<path fill="none" stroke="#000000" d="M553,-122.1061C553,-122.1061 553,-140.991 553,-140.991"/>
<polygon fill="#000000" stroke="#000000" points="549.5001,-140.9909 553,-150.991 556.5001,-140.991 549.5001,-140.9909"/>
</g>
<!-- SplashComponent -->
<g id="node5" class="node">
<title>SplashComponent</title>
<polygon fill="#ffffb3" stroke="#000000" points="463.1653,-122 344.8347,-122 344.8347,-86 463.1653,-86 463.1653,-122"/>
<text text-anchor="middle" x="404" y="-99.8" font-family="Times,serif" font-size="14.00" fill="#000000">SplashComponent</text>
</g>
<!-- SplashComponent&#45;&gt;AppModule -->
<g id="edge5" class="edge">
<title>SplashComponent&#45;&gt;AppModule</title>
<path fill="none" stroke="#000000" d="M404,-122.027C404,-138.3976 404,-160 404,-160 404,-160 501.0987,-160 501.0987,-160"/>
<polygon fill="#000000" stroke="#000000" points="501.0987,-163.5001 511.0987,-160 501.0986,-156.5001 501.0987,-163.5001"/>
</g>
<!-- SubmitLoanComponent -->
<g id="node6" class="node">
<title>SubmitLoanComponent</title>
<polygon fill="#ffffb3" stroke="#000000" points="326.0547,-122 175.9453,-122 175.9453,-86 326.0547,-86 326.0547,-122"/>
<text text-anchor="middle" x="251" y="-99.8" font-family="Times,serif" font-size="14.00" fill="#000000">SubmitLoanComponent</text>
</g>
<!-- SubmitLoanComponent&#45;&gt;AppModule -->
<g id="edge6" class="edge">
<title>SubmitLoanComponent&#45;&gt;AppModule</title>
<path fill="none" stroke="#000000" d="M251,-122.1061C251,-141.3391 251,-169 251,-169 251,-169 501.3253,-169 501.3253,-169"/>
<polygon fill="#000000" stroke="#000000" points="501.3253,-172.5001 511.3253,-169 501.3252,-165.5001 501.3253,-172.5001"/>
</g>
<!-- AppComponent  -->
<g id="node9" class="node">
<title>AppComponent </title>
<polygon fill="#80b1d3" stroke="#000000" points="607.439,-252 498.561,-252 498.561,-216 607.439,-216 607.439,-252"/>
<text text-anchor="middle" x="553" y="-229.8" font-family="Times,serif" font-size="14.00" fill="#000000">AppComponent </text>
</g>
<!-- AppModule&#45;&gt;AppComponent  -->
<g id="edge8" class="edge">
<title>AppModule&#45;&gt;AppComponent </title>
<path fill="none" stroke="#000000" stroke-dasharray="1,5" d="M553,-187.1061C553,-187.1061 553,-205.991 553,-205.991"/>
<polygon fill="#000000" stroke="#000000" points="549.5001,-205.9909 553,-215.991 556.5001,-205.991 549.5001,-205.9909"/>
</g>
<!-- AppRoutingModule -->
<g id="node8" class="node">
<title>AppRoutingModule</title>
<polygon fill="#8dd3c7" stroke="#000000" points="152.2744,-122 149.2744,-126 128.2744,-126 125.2744,-122 23.7256,-122 23.7256,-86 152.2744,-86 152.2744,-122"/>
<text text-anchor="middle" x="88" y="-99.8" font-family="Times,serif" font-size="14.00" fill="#000000">AppRoutingModule</text>
</g>
<!-- AppRoutingModule&#45;&gt;AppModule -->
<g id="edge7" class="edge">
<title>AppRoutingModule&#45;&gt;AppModule</title>
<path fill="none" stroke="#000000" d="M88,-122.2921C88,-144.2057 88,-178 88,-178 88,-178 501.3251,-178 501.3251,-178"/>
<polygon fill="#000000" stroke="#000000" points="501.3252,-181.5001 511.3251,-178 501.3251,-174.5001 501.3252,-181.5001"/>
</g>
</g>
</svg>
